<svg width="46" height="41" viewBox="0 0 46 41" fill="none" xmlns="http://www.w3.org/2000/svg">
<path id="Vector 11" d="M1.59106 39.2521C1.53381 39.0252 1.42154 38.8283 1.35153 38.6078C1.18045 38.0691 1.43261 37.3583 1.57466 36.8432C2.69544 32.779 6.12799 29.9768 9.38899 27.5765C12.2911 25.4404 16.6915 22.2601 20.5091 23.9057C22.354 24.7009 22.6793 26.5329 22.1924 28.2857C21.9685 29.0916 21.525 29.9503 20.831 30.4555C19.9966 31.0629 18.4083 30.7724 17.5248 30.4477C16.1946 29.9588 15.5618 28.7927 15.5315 27.4113C15.5065 26.2781 15.9314 25.0802 16.2265 24.0019C16.6059 22.6154 17.098 21.2479 17.7108 19.9465C19.6061 15.9214 24.1043 13.3317 27.9763 11.5716C30.6229 10.3686 33.3847 9.25231 36.1694 8.40931C37.6745 7.95368 39.2849 7.48291 40.8692 7.43091C40.9604 7.42791 42.3955 7.35558 42.0863 7.58906C41.3473 8.14707 40.689 8.77967 40.0034 9.40257C38.1838 11.0559 36.3214 12.6601 34.5235 14.3378C33.3911 15.3946 32.3125 16.5105 31.1696 17.5556C30.6374 18.0423 31.0773 17.6412 31.3199 17.4818C33.0514 16.3437 34.5458 14.8865 36.0545 13.4773C38.2038 11.4697 40.3349 9.44519 42.4165 7.36721C42.46 7.32372 43.7949 5.98806 43.9525 5.81826C44.1834 5.56956 44.5478 5.26674 44.0564 5.18269C42.611 4.93546 41.1668 4.74631 39.7266 4.44795C36.7224 3.8256 33.8934 2.86859 30.9926 1.90767" stroke="black" stroke-width="2" stroke-linecap="round"/>
</svg>
